<svg width="640" height="480" xmlns="http://www.w3.org/2000/svg" xmlns:svg="http://www.w3.org/2000/svg">
 <!-- Created with SVG-edit - https://github.com/SVG-Edit/svgedit-->
 <g class="layer">
  <title>Layer 1</title>
  <ellipse cx="327" cy="161.5" fill="#f2c196" id="svg_1" rx="85" ry="51.5" stroke="#000000"/>
  <ellipse cx="280" cy="161" fill="#ffffff" id="svg_2" rx="18" ry="16" stroke="#000000" transform="matrix(1 0 0 1 0 0)"/>
  <ellipse cx="377" cy="161" fill="#ffffff" id="svg_3" rx="18" ry="16" stroke="#000000"/>
  <line fill="none" id="svg_4" stroke="#000000" x1="273" x2="296" y1="134" y2="142"/>
  <line fill="none" id="svg_5" stroke="#000000" x1="382" x2="356" y1="133" y2="145"/>
  <path d="m263,155c0,0 33,0 33,0c0,0 -6.19,-10 -21.66,-10" fill="#f2c196" id="svg_6" stroke="#000000"/>
  <path d="m360.5,155c0,0 35,0 35,0c0,0 -6.56,-10 -22.97,-10" fill="#f2c196" id="svg_7" stroke="#000000"/>
  <ellipse cx="279" cy="161" fill="#0c0c0b" id="svg_8" rx="3" ry="3" stroke="#000000"/>
  <ellipse cx="378" cy="160" fill="#0c0c0b" id="svg_9" rx="3" ry="3" stroke="#000000"/>
  <path d="m342,179c-21.3,14.74 -34.07,3.69 -21.3,14.74c12.78,11.06 21.3,-14.74 21.3,-14.74z" fill="#0c0c0b" id="svg_12" stroke="#000000"/>
  <path d="m329,157c0,0 -6,11 -6,11c0,0 10,4 10,4" fill="#0c0c0b" id="svg_16" stroke="#000000" transform="matrix(1 0 0 1 0 0) rotate(-178.386 328 164.5)"/>
  <line fill="none" id="svg_17" stroke="#000000" stroke-width="3" x1="296" x2="300" y1="112" y2="134"/>
  <line fill="none" id="svg_18" stroke="#000000" stroke-width="3" x1="325" x2="325" y1="109" y2="132"/>
  <line fill="none" id="svg_19" stroke="#000000" stroke-width="3" x1="355" x2="349" y1="111" y2="136"/>
 </g>
</svg>